<svg xmlns="http://www.w3.org/2000/svg" viewBox="0 0 320 180">
  <g fill="currentColor">
    <rect x="20" y="74" width="24" height="34" rx="6" fill-opacity="0.6" />
    <circle cx="50" cy="106" r="4" />
    <rect x="56" y="74" width="24" height="34" rx="6" fill-opacity="0.28" />
    <rect x="84" y="74" width="24" height="34" rx="6" fill-opacity="0.28" />
    <rect x="112" y="74" width="24" height="34" rx="6" fill-opacity="0.28" />
    <rect x="140" y="74" width="24" height="34" rx="6" fill-opacity="0.28" />
  </g>
  <path d="M58 60H162" fill="none" stroke="currentColor" stroke-width="5" stroke-linecap="round" />
  <circle cx="240" cy="92" r="60" fill="none" stroke="currentColor" stroke-width="3" stroke-opacity="0.25" />
  <path d="M266 146.1L298.5 105.4L193.1 54.6L214 146.1L181.5 105.4L286.9 54.6Z" fill="currentColor" fill-opacity="0.08" stroke="currentColor" stroke-width="4" stroke-linejoin="round" stroke-opacity="0.8" />
  <g fill="currentColor">
    <circle cx="286.9" cy="54.6" r="9" />
    <circle cx="298.5" cy="105.4" r="9" />
    <circle cx="266" cy="146.1" r="10" />
    <circle cx="214" cy="146.1" r="9" />
    <circle cx="181.5" cy="105.4" r="9" />
    <circle cx="193.1" cy="54.6" r="9" />
  </g>
  <circle cx="240" cy="32" r="8" fill="none" stroke="currentColor" stroke-width="3.5" stroke-opacity="0.6" />
  <circle cx="266" cy="146.1" r="16" fill="none" stroke="currentColor" stroke-width="3" stroke-opacity="0.5" />
</svg>
